<svg xmlns="http://www.w3.org/2000/svg" viewBox="0 0 240 240" fill="currentColor">
  <path d="M240,224.31c0,8.67-7.03,15.69-15.69,15.69H15.69C7.03,240,0,232.97,0,224.31V103.79c0-4.16,1.65-8.15,4.6-11.1L111.26,2.03c5.94-5.93,15.55-5.93,21.49,0L236.4,92.69c2.94,2.95,4.6,6.94,4.6,11.1V224.31z"/>
  <path fill="#0d1117" d="M120,39.98l-90,90v84.34h180v-84.34L120,39.98z M120,84.89c8.28,0,15,6.72,15,15c0,8.28-6.72,15-15,15 c-8.28,0-15-6.72-15-15C105,91.61,111.72,84.89,120,84.89z M90,144.89c8.28,0,15,6.72,15,15s-6.72,15-15,15s-15-6.72-15-15 S81.72,144.89,90,144.89z M150,144.89c8.28,0,15,6.72,15,15s-6.72,15-15,15s-15-6.72-15-15S141.72,144.89,150,144.89z M120,174.89 c8.28,0,15,6.72,15,15s-6.72,15-15,15s-15-6.72-15-15S111.72,174.89,120,174.89z"/>
  <line x1="120" y1="99.89" x2="120" y2="129.89" stroke="#0d1117" stroke-width="8"/>
  <line x1="97.5" y1="114.89" x2="142.5" y2="114.89" stroke="#0d1117" stroke-width="8"/>
  <line x1="120" y1="159.89" x2="120" y2="189.89" stroke="#0d1117" stroke-width="8"/>
  <line x1="90" y1="159.89" x2="90" y2="144.89" stroke="#0d1117" stroke-width="8"/>
  <line x1="150" y1="159.89" x2="150" y2="144.89" stroke="#0d1117" stroke-width="8"/>
</svg>
