<svg xmlns="http://www.w3.org/2000/svg" viewBox="0 0 200 100" fill="none">
  <!-- Fond ovale vert -->
  <ellipse cx="100" cy="55" rx="90" ry="40" fill="#8BC34A"/>
  
  <!-- Herbes -->
  <path d="M30 45 Q35 20 40 45" stroke="#4CAF50" stroke-width="3" fill="none"/>
  <path d="M55 40 Q60 12 65 40" stroke="#4CAF50" stroke-width="3" fill="none"/>
  <path d="M95 38 Q100 8 105 38" stroke="#4CAF50" stroke-width="3" fill="none"/>
  <path d="M135 40 Q140 12 145 40" stroke="#4CAF50" stroke-width="3" fill="none"/>
  <path d="M160 45 Q165 20 170 45" stroke="#4CAF50" stroke-width="3" fill="none"/>
  
  <!-- Fleur -->
  <circle cx="100" cy="15" r="8" fill="#7CB342"/>
  <line x1="100" y1="23" x2="100" y2="38" stroke="#4CAF50" stroke-width="3"/>
  
  <!-- Texte -->
  <text x="100" y="52" text-anchor="middle" font-family="Georgia, serif" font-size="11" font-style="italic" fill="#5D4037">Les Paniers de</text>
  <text x="100" y="75" text-anchor="middle" font-family="Georgia, serif" font-size="18" font-weight="bold" fill="#4E342E">LÉOPOLD</text>
  
  <!-- Coccinelles stylisées -->
  <g transform="translate(52, 63)">
    <ellipse cx="0" cy="0" rx="7" ry="6" fill="#E53935"/>
    <circle cx="0" cy="-4" r="3" fill="#212121"/>
    <line x1="0" y1="-6" x2="0" y2="6" stroke="#212121" stroke-width="1"/>
    <circle cx="-3" cy="1" r="1.5" fill="#212121"/>
    <circle cx="3" cy="1" r="1.5" fill="#212121"/>
  </g>
  
  <g transform="translate(148, 63)">
    <ellipse cx="0" cy="0" rx="7" ry="6" fill="#E53935"/>
    <circle cx="0" cy="-4" r="3" fill="#212121"/>
    <line x1="0" y1="-6" x2="0" y2="6" stroke="#212121" stroke-width="1"/>
    <circle cx="-3" cy="1" r="1.5" fill="#212121"/>
    <circle cx="3" cy="1" r="1.5" fill="#212121"/>
  </g>
</svg>
